<?xml version="1.0" encoding="utf-8"?>
<!-- Generator: Adobe Illustrator 19.0.0, SVG Export Plug-In . SVG Version: 6.00 Build 0)  -->
<svg version="1.1" xmlns="http://www.w3.org/2000/svg" xmlns:xlink="http://www.w3.org/1999/xlink" x="0px" y="0px"
	 viewBox="0 0 1280 1280" style="enable-background:new 0 0 1280 1280;" xml:space="preserve">
<style type="text/css">
	.st0{display:none;}
	.st1{display:inline;fill:#E2ECF6;stroke:#000000;stroke-miterlimit:10;}
	.st2{fill:#FFFFFF;stroke:#000000;stroke-miterlimit:10;}
	.st3{fill:none;stroke:#414042;stroke-width:23;stroke-miterlimit:10;}
	.st4{fill:#414042;}
	.st5{fill:none;}
	.st6{font-family:'Pacifico-Regular';}
	.st7{font-size:183px;}
	.st8{font-size:60px;}
</style>
<g id="background" class="st0">
	<rect id="XMLID_3_" class="st1" width="1280" height="1280"/>
</g>
<g id="Layer_2">
	<path id="XMLID_1_" class="st2" d="M720.3,424.2"/>
	<path id="XMLID_8_" class="st3" d="M839,637.1C839,737,753.1,818,647.2,818s-191.8-81-191.8-180.9c0-0.7,0-1.4,0-2.1
		c62.5-12.1,132.8-18.9,207.2-18.9c62.3,0,121.8,4.8,176.1,13.4C838.9,632.1,839,634.6,839,637.1z"/>
	<g id="XMLID_2_">
		<path id="XMLID_17_" class="st4" d="M464.9,794.3c0,0,0.1,0.1,0.2,0.2c0.1,0.1,0.2,0.1,0.3,0.2c0.1,0.1,0.2,0.2,0.3,0.3
			c0.2,0.2,0.4,0.4,0.7,0.6c0.2,0.1,0.3,0.3,0.5,0.4c0.2,0.2,0.5,0.3,0.7,0.5c1.1,0.7,2.3,1.6,4,2.6c0.8,0.5,1.7,1.1,2.7,1.6
			c1,0.5,2,1.1,3.1,1.8c1.1,0.6,2.3,1.3,3.5,1.9c1.3,0.6,2.6,1.3,4,2c2.7,1.5,5.8,2.8,9.1,4.3c0.8,0.4,1.7,0.7,2.5,1.1
			c0.9,0.4,1.7,0.7,2.6,1.1c1.8,0.7,3.6,1.5,5.5,2.2c0.9,0.4,1.9,0.8,2.9,1.1c1,0.4,2,0.7,3,1.1c2,0.7,4.1,1.5,6.2,2.2
			c8.5,2.9,17.8,5.7,27.9,8.2c1.3,0.3,2.5,0.7,3.8,1c1.3,0.3,2.6,0.6,3.9,0.9c2.6,0.6,5.2,1.2,7.9,1.7c2.7,0.6,5.3,1.2,8.1,1.6
			c2.7,0.5,5.5,1,8.3,1.5c2.8,0.5,5.6,1,8.4,1.4c2.8,0.4,5.7,0.8,8.6,1.2c2.9,0.4,5.8,0.7,8.7,1.1c2.9,0.3,5.9,0.6,8.8,0.8
			c3,0.3,5.9,0.5,8.9,0.8c1.5,0.1,3,0.2,4.5,0.4c1.5,0.1,3,0.1,4.5,0.2c6,0.3,12.1,0.5,18.1,0.8c6.1,0,12.2,0.1,18.2,0
			c1.5,0,3,0,4.5,0c1.5-0.1,3-0.1,4.5-0.2c3-0.1,6-0.2,8.9-0.4c3-0.2,5.9-0.3,8.9-0.5c2.9-0.2,5.9-0.5,8.8-0.7
			c2.9-0.3,5.8-0.5,8.7-0.8c2.9-0.2,5.7-0.7,8.5-1c2.8-0.4,5.6-0.7,8.4-1.1c2.8-0.3,5.5-0.8,8.2-1.3c2.7-0.5,5.3-0.9,8-1.4
			c1.3-0.2,2.6-0.5,3.9-0.7c1.3-0.3,2.6-0.5,3.8-0.8c10.2-2.1,19.7-4.5,28.3-7c8.7-2.5,16.5-5.3,23.2-7.9c3.4-1.4,6.6-2.5,9.4-3.9
			c1.4-0.6,2.8-1.2,4.1-1.8c1.3-0.6,2.5-1.2,3.7-1.8c1.2-0.6,2.2-1.1,3.3-1.6c1-0.5,1.9-1.1,2.8-1.5c1.8-0.9,3.1-1.8,4.3-2.5
			c1.2-0.7,1.9-1.2,2.4-1.6c0.3-0.2,0.3-0.3,0.5-0.4c0.1-0.1,0.1-0.1,0.1-0.1l13,31.7c0,0-0.1,0-0.4,0.1c-0.2,0.1-0.7,0.2-1.1,0.2
			c-0.8,0.1-2.1,0.4-3.7,0.6c-1.6,0.2-3.5,0.6-5.7,0.9c-2.2,0.3-4.7,0.7-7.5,1.1c-2.8,0.4-5.9,0.8-9.2,1.2
			c-3.3,0.4-6.9,0.9-10.7,1.3c-7.6,0.9-16.2,1.8-25.4,2.7c-9.3,0.9-19.3,1.7-29.8,2.5c-5.3,0.5-10.7,0.7-16.2,1.1
			c-5.5,0.4-11.2,0.7-16.9,1c-2.9,0.2-5.8,0.4-8.7,0.5c-2.9,0.1-5.8,0.3-8.8,0.4c-2.9,0.1-5.9,0.3-8.9,0.5c-3,0.1-6,0.2-9,0.3
			c-3,0.1-6,0.2-9.1,0.4c-1.5,0.1-3,0.1-4.6,0.2c-1.5,0-3,0.1-4.5,0.1c-6.1,0.1-12.1,0.3-18.2,0.5c-6.2,0.1-12.3,0.1-18.4,0.3
			c-1.5,0-3,0.1-4.6,0.1c-1.5,0-3,0-4.6,0c-3,0-6.1,0-9.1,0c-3,0-6,0.1-9,0.1c-3,0-6,0-8.9-0.1c-3,0-5.9,0-8.8,0
			c-2.9,0-5.8-0.1-8.7-0.1c-5.8-0.1-11.5-0.1-17.1-0.3c-5.6-0.2-11.1-0.2-16.4-0.5c-10.7-0.4-20.8-0.8-30.3-1.3
			c-9.4-0.5-18.1-1.1-26-1.7c-3.9-0.3-7.6-0.6-11-0.9c-3.4-0.3-6.6-0.6-9.5-0.9c-1.4-0.1-2.8-0.3-4.1-0.4c-1.3-0.2-2.5-0.3-3.7-0.4
			c-2.3-0.2-4.3-0.5-5.9-0.7c-0.4-0.1-0.8-0.1-1.2-0.2c-0.4-0.1-0.8-0.1-1.2-0.2c-0.7-0.1-1.3-0.2-1.8-0.3c-0.3,0-0.5-0.1-0.6-0.1
			c-0.1,0-0.3,0-0.4,0c-0.2,0-0.3,0-0.3,0L464.9,794.3z"/>
	</g>
	<g id="XMLID_4_">
		<path id="XMLID_15_" class="st4" d="M413.8,681c0,0-1.2-0.8-3.5-2.1c-2.3-1.4-5.6-3.4-9.8-5.8c-4.3-2.4-9.4-5.2-15.4-8.1
			c-6-2.9-12.8-6-20.3-8.7c-3.8-1.4-7.7-2.7-11.7-3.7c-4.1-1.1-8.3-2-12.5-2.7c-1.1-0.1-2.1-0.3-3.2-0.4c-1.1-0.1-2.2-0.2-3.2-0.3
			c-2.2-0.1-4.3-0.3-6.5-0.2c-4.3,0.1-8.7,0.4-12.8,1.5l-0.4,0.1l-0.1,0c0.1,0-0.4,0.1,0.3-0.1l-0.2,0.1l-1,0.3l-1.9,0.5
			c-1.4,0.3-2.2,0.7-3.1,1l-1.4,0.5l-1.5,0.6l-1.5,0.6c-0.5,0.2-1,0.5-1.4,0.7c-3.9,1.9-7.4,4.3-10.4,7.1c-3,2.8-5.7,6-7.6,9.5
			c-1.9,3.5-3.3,7.3-3.8,11.2c-0.5,3.9-0.4,7.8,0.5,11.5c0.9,3.7,2.5,7.2,4.7,10.4c0.6,0.8,1.2,1.5,1.8,2.3c0.7,0.7,1.3,1.5,2,2.2
			c1.4,1.4,3,2.7,4.7,3.9l1.3,0.9l0.3,0.2l0.2,0.1l0.1,0.1c-0.2-0.1,0.5,0.3-0.4-0.2l0.9,0.5l1.7,1l0.9,0.5c0.3,0.2,0.4,0.2,0.7,0.3
			l1.2,0.6l0.6,0.3l0.3,0.2l0.4,0.2c1,0.4,2,0.8,3,1.2c8.4,3,17.7,4.7,26.7,5.7c9,1,17.8,1.4,26,1.6c8.2,0.2,15.8,0.1,22.5-0.1
			c6.8-0.1,12.7-0.4,17.6-0.6c9.9-0.4,15.5-0.7,15.5-0.7s-1.3,0.6-3.7,1.7c-2.5,1-6.1,2.5-10.8,4.2c-4.7,1.7-10.4,3.5-17.1,5.4
			c-6.7,1.9-14.3,3.7-22.8,5.2c-4.2,0.8-8.7,1.4-13.4,1.9c-2.3,0.2-4.7,0.5-7.2,0.6c-1.2,0.1-2.4,0.2-3.7,0.2
			c-1.2,0.1-2.5,0.1-3.8,0.2c-10.1,0.2-21.1-0.3-32.8-3.3c-1.5-0.4-2.9-0.9-4.4-1.3l-0.6-0.2L293,739l-1.2-0.5l-2.4-1
			c-0.4-0.2-0.9-0.3-1.2-0.5l-0.9-0.4l-1.8-0.9l-0.9-0.4l-1-0.5l-0.5-0.3l-2.1-1.3c-5.7-3.5-11-8-15.4-13.6
			c-4.4-5.6-7.7-12.2-9.6-19.3c-1.9-7.1-2.2-14.5-1.2-21.7c1.1-7.2,3.6-14,7.1-20.2c0.9-1.5,1.9-3,2.9-4.5c1.1-1.4,2.1-2.8,3.3-4.1
			c1.2-1.3,2.3-2.6,3.6-3.8c1.2-1.2,2.5-2.4,3.8-3.5c5.3-4.4,11.1-7.8,17.1-10.2c0.7-0.3,1.5-0.6,2.2-0.9l2.3-0.8l2.3-0.7
			c0.8-0.2,1.6-0.4,2.4-0.6l2.4-0.6c0.9-0.2,1.4-0.3,2.1-0.4l1.9-0.3l1-0.2l0.2,0c0.8-0.2,0.3-0.1,0.5-0.1l0.1,0l0.6-0.1
			c1.5-0.2,3.1-0.3,4.6-0.5c1.5-0.1,3-0.1,4.5-0.2c0.7,0,1.5,0,2.2,0c0.7,0,1.5,0.1,2.2,0.1c1.5,0,2.9,0.2,4.3,0.4
			c5.7,0.6,11.2,1.7,16.2,3.3c10.1,3,18.9,7.4,26.4,11.9c7.6,4.5,13.9,9.4,19.3,13.9c5.4,4.5,9.7,8.8,13.2,12.4
			c3.4,3.6,5.9,6.6,7.6,8.7C412.9,679.9,413.8,681,413.8,681z"/>
	</g>
	<rect id="XMLID_6_" x="343.4" y="334.7" class="st5" width="593.2" height="180.3"/>
	<text id="XMLID_5_" transform="matrix(1 0 0 1 343.4095 506.4293)" class="st4 st6 st7">Swetea</text>
	<rect id="XMLID_9_" x="428.6" y="521" class="st5" width="456.4" height="82"/>
	<text id="XMLID_7_" transform="matrix(1 0 0 1 428.553 577.3096)" class="st4 st6 st8">Your cup of teach! </text>
</g>
</svg>
